_________________________  Visit us at _________________________
  
http://p2pdl.com  ____________________________  http://p2pdl.com


Talaash 2012 BRRip x264 Hindi ESubs - ViZNU

Genre: Crime | Drama | Mystery
Plot: A cop, investigating the mysterious death of a filmstar, meets a sex-worker, while he faces
some personal problems psychologically. The mystery connects these people in a way, that ultimately
changes their lives. 
Director: Reema Kagti
Stars: Aamir Khan, Kareena Kapoor, Rani Mukerji.
Rated: N/a.


IMDb: 
http://www.imdb.com/title/tt1787988/

Trailer:


Format                         : MPEG-4
File size                      : 802 MiB
Duration                       : 2h 20mn
Overall bit rate               : 798 Kbps
Video Format                   : AVC
Video Bit rate                 : 711 Kbps
Width                          : 1 280 pixels
Height                         : 528 pixels
Display aspect ratio           : 2.40:1
Frame rate mode                : Constant
Frame rate                     : 23.976 fps
Stream size                    : 715 MiB (89%)
Writing library                : x264 core 129 r2245
Audio Format                   : AAC
Duration                       : 2h 20mn
Audio Bit rate                 : 83.5 Kbps
Channel(s)                     : 2 channels
Channel positions              : Front: L R
Sampling rate                  : 48.0 KHz / 24.0 KHz
Stream size                    : 84.0 MiB (10%)
Language                       : Hindi
Subtitle                       : Yes(English)
Source                         : DDR(Thanks)

Screenshots:
 
http://i.imgbox.com/adfLSC9U.jpg 
http://i.imgbox.com/abp2mIES.png 
http://i.imgbox.com/adxBM93y.jpg 
http://i.imgbox.com/admBtjUt.jpg 
http://i.imgbox.com/absWCFUH.jpg 
http://i.imgbox.com/abl8IKmK.jpg


----------------------------------------------------------------------------------------------------


Encoded using revolutionary 10bit encoding, which enables us to provide you more crispier and
sharper images at small sizes, just make sure you follow our instructions without a fault.
Recommend to you to use latest version of VLC player. Install K-Lite Codec Pack or shark007 codecs
in case of any kind of problem in playback (For non-VLC Media Player users). Alternatively, install
Core AVC codecs, the fastest decoder that there is coupled with Community Center Codec Pack and play
on Windows Media Player Classic.



Encoder Notes: Looking For Early Access To Anything You Can Provide DVDScr, R5, DVDR, BluRay, Direct
Audio, Music Releases and Seedboxes. We require dedicated servers, so as to do more and fast releases of movies.
If You Got anything to offer contact us at "prg@hush.com".